<svg version="1" xmlns="http://www.w3.org/2000/svg" width="933.333" height="933.333" viewBox="0 0 700.000000 700.000000"><path d="M330.5 59c-41.7 3.1-77.8 13.2-114.1 31.9C134.6 133 77.9 210.5 62.5 301.4c-9 53.4-2.7 110.4 17.6 159.2C131.9 585.1 259.9 658 392.7 638.5c66.6-9.8 129.6-43.6 174-93.4 65.8-73.7 90.1-173.8 65.4-269.2-8.6-33.3-25.3-68.5-46-96.9-48-66.1-120.4-108.8-201.1-118.4-16.1-2-40.5-2.7-54.5-1.6zm44.3 59.1c43.4 4.7 85.3 21.7 119.7 48.8 9.2 7.2 27 24.6 35.2 34.3 22.1 26.5 40.1 63 47.7 96.9 7.4 33.1 7.6 68.8.5 101.9-5 23.1-17.1 52.9-29.4 72.5-18.2 28.9-43.6 54.9-71.5 73.1-81.6 53.1-188.7 49.5-266.8-9-12.6-9.5-31.8-27.8-40.9-39.1-51.1-63.3-65.9-146.9-39.7-223.8C150.1 213.7 197 162.6 255 137c20.8-9.2 46.9-16.4 68.5-18.8 11.4-1.3 39.9-1.4 51.3-.1z"/></svg>